<svg width="328" height="107" viewBox="0 0 328 107" fill="none" xmlns="http://www.w3.org/2000/svg">
<rect y="28.6242" width="231.168" height="57.2484" fill="#D9D9D9"/>
<path d="M6.3122 27.1242L24.746 2.5028L43.1798 27.1242H6.3122Z" fill="#D9D9D9" stroke="black" stroke-width="3"/>
<rect x="105.402" y="14.1083" width="29.2774" height="91.3917" fill="#D9D9D9" stroke="black" stroke-width="3"/>
<rect x="192.705" y="11.7229" width="29.2774" height="91.3917" fill="#D9D9D9" stroke="black" stroke-width="3"/>
<rect x="246.193" y="11.7229" width="80.3065" height="79.465" fill="#D9D9D9" stroke="black" stroke-width="3"/>
<rect x="149.054" y="14.1083" width="29.2774" height="91.3917" fill="#D9D9D9" stroke="black" stroke-width="3"/>
<rect x="58.6772" y="14.1083" width="29.2774" height="91.3917" fill="#D9D9D9" stroke="black" stroke-width="3"/>
<path d="M230.86 44.3845L244.694 37.3753V65.7059L230.86 60.3153V44.3845Z" fill="#D9D9D9"/>
<path d="M180.293 58.9008C181.432 58.9555 182.327 59.8947 182.327 61.0347C182.327 62.1939 181.403 63.1416 180.244 63.1705L18.3053 67.2136C16.3387 67.2627 14.718 65.6819 14.718 63.7147V54.61C14.718 52.611 16.3894 51.018 18.3861 51.1141L180.293 58.9008Z" fill="#D9D9D9" stroke="black" stroke-width="3"/>
</svg>
